<?xml version="1.0" encoding="utf-8"?>
<svg version="1.1" id="Layer_1" xmlns="http://www.w3.org/2000/svg" xmlns:xlink="http://www.w3.org/1999/xlink" x="0px" y="0px"
	 viewBox="0 0 198.4 198.4" style="enable-background:new 0 0 198.4 198.4;" xml:space="preserve">
<style type="text/css">
	.st0{fill:#F4E800;}
	.st1{fill:#DD1C4F;}
	.st2{fill:#36BAEC;}
	.st3{fill:#78C043;}
</style>
<g>
	<path class="st0" d="M23.4,99.2c0,41.9,34,75.9,75.9,75.9c0-25.3,0-50.6,0-75.9C73.9,99.2,48.6,99.2,23.4,99.2z"/>
	<path class="st1" d="M99.2,23.4c-41.9,0-75.9,34-75.9,75.9c25.3,0,50.6,0,75.9,0C99.2,73.9,99.2,48.6,99.2,23.4z"/>
	<path class="st2" d="M99.2,175.1c41.9,0,75.9-34,75.9-75.9c-25.3,0-50.6,0-75.9,0C99.2,124.5,99.2,149.8,99.2,175.1z"/>
	<path class="st3" d="M99.2,23.4c0,25.3,0,50.6,0,75.9c25.3,0,50.6,0,75.9,0C175.1,57.3,141.1,23.4,99.2,23.4z"/>
</g>
</svg>
